<?xml version="1.0"?><svg xmlns="http://www.w3.org/2000/svg" width="180" height="180"><rect x="0" y="0" width="100%" height="100%" fill="rgb(253, 203, 110)" /><circle cx="0" cy="0" r="30" fill="#222" style="opacity:0.046;" /><circle cx="180" cy="0" r="30" fill="#222" style="opacity:0.046;" /><circle cx="0" cy="180" r="30" fill="#222" style="opacity:0.046;" /><circle cx="180" cy="180" r="30" fill="#222" style="opacity:0.046;" /><circle cx="30" cy="0" r="30" fill="#222" style="opacity:0.080666666666667;" /><circle cx="30" cy="180" r="30" fill="#222" style="opacity:0.080666666666667;" /><circle cx="60" cy="0" r="30" fill="#222" style="opacity:0.046;" /><circle cx="60" cy="180" r="30" fill="#222" style="opacity:0.046;" /><circle cx="90" cy="0" r="30" fill="#222" style="opacity:0.13266666666667;" /><circle cx="90" cy="180" r="30" fill="#222" style="opacity:0.13266666666667;" /><circle cx="120" cy="0" r="30" fill="#222" style="opacity:0.046;" /><circle cx="120" cy="180" r="30" fill="#222" style="opacity:0.046;" /><circle cx="150" cy="0" r="30" fill="#222" style="opacity:0.046;" /><circle cx="150" cy="180" r="30" fill="#222" style="opacity:0.046;" /><circle cx="0" cy="30" r="30" fill="#ddd" style="opacity:0.089333333333333;" /><circle cx="180" cy="30" r="30" fill="#ddd" style="opacity:0.089333333333333;" /><circle cx="30" cy="30" r="30" fill="#ddd" style="opacity:0.02;" /><circle cx="60" cy="30" r="30" fill="#ddd" style="opacity:0.10666666666667;" /><circle cx="90" cy="30" r="30" fill="#222" style="opacity:0.028666666666667;" /><circle cx="120" cy="30" r="30" fill="#222" style="opacity:0.15;" /><circle cx="150" cy="30" r="30" fill="#222" style="opacity:0.11533333333333;" /><circle cx="0" cy="60" r="30" fill="#222" style="opacity:0.13266666666667;" /><circle cx="180" cy="60" r="30" fill="#222" style="opacity:0.13266666666667;" /><circle cx="30" cy="60" r="30" fill="#222" style="opacity:0.046;" /><circle cx="60" cy="60" r="30" fill="#ddd" style="opacity:0.037333333333333;" /><circle cx="90" cy="60" r="30" fill="#ddd" style="opacity:0.10666666666667;" /><circle cx="120" cy="60" r="30" fill="#222" style="opacity:0.11533333333333;" /><circle cx="150" cy="60" r="30" fill="#ddd" style="opacity:0.072;" /><circle cx="0" cy="90" r="30" fill="#ddd" style="opacity:0.072;" /><circle cx="180" cy="90" r="30" fill="#ddd" style="opacity:0.072;" /><circle cx="30" cy="90" r="30" fill="#222" style="opacity:0.13266666666667;" /><circle cx="60" cy="90" r="30" fill="#222" style="opacity:0.028666666666667;" /><circle cx="90" cy="90" r="30" fill="#222" style="opacity:0.080666666666667;" /><circle cx="120" cy="90" r="30" fill="#222" style="opacity:0.098;" /><circle cx="150" cy="90" r="30" fill="#222" style="opacity:0.11533333333333;" /><circle cx="0" cy="120" r="30" fill="#222" style="opacity:0.13266666666667;" /><circle cx="180" cy="120" r="30" fill="#222" style="opacity:0.13266666666667;" /><circle cx="30" cy="120" r="30" fill="#222" style="opacity:0.11533333333333;" /><circle cx="60" cy="120" r="30" fill="#ddd" style="opacity:0.072;" /><circle cx="90" cy="120" r="30" fill="#222" style="opacity:0.098;" /><circle cx="120" cy="120" r="30" fill="#ddd" style="opacity:0.10666666666667;" /><circle cx="150" cy="120" r="30" fill="#222" style="opacity:0.046;" /><circle cx="0" cy="150" r="30" fill="#ddd" style="opacity:0.037333333333333;" /><circle cx="180" cy="150" r="30" fill="#ddd" style="opacity:0.037333333333333;" /><circle cx="30" cy="150" r="30" fill="#ddd" style="opacity:0.054666666666667;" /><circle cx="60" cy="150" r="30" fill="#ddd" style="opacity:0.14133333333333;" /><circle cx="90" cy="150" r="30" fill="#ddd" style="opacity:0.124;" /><circle cx="120" cy="150" r="30" fill="#222" style="opacity:0.063333333333333;" /><circle cx="150" cy="150" r="30" fill="#222" style="opacity:0.063333333333333;" /></svg>