<?xml version="1.0"?><svg xmlns="http://www.w3.org/2000/svg" width="100" height="58"><rect x="0" y="0" width="100%" height="100%" fill="rgb(9, 132, 227)" /><polyline points="0, 0, 16.743157806499, 9.6666666666667, 0, 19.333333333333, 0, 0" fill="#222" fill-opacity="0.028666666666667" stroke="#000" stroke-opacity="0.02" transform="translate(0, -9.6666666666667) rotate(180, 8.3715789032496, 9.6666666666667)" /><polyline points="0, 0, 16.743157806499, 9.6666666666667, 0, 19.333333333333, 0, 0" fill="#222" fill-opacity="0.028666666666667" stroke="#000" stroke-opacity="0.02" transform="translate(0, 48.333333333333) rotate(180, 8.3715789032496, 9.6666666666667)" /><polyline points="0, 0, 16.743157806499, 9.6666666666667, 0, 19.333333333333, 0, 0" fill="#ddd" fill-opacity="0.037333333333333" stroke="#000" stroke-opacity="0.02" transform="translate(16.743157806499, -9.6666666666667) rotate(0, 8.3715789032496, 9.6666666666667)" /><polyline points="0, 0, 16.743157806499, 9.6666666666667, 0, 19.333333333333, 0, 0" fill="#ddd" fill-opacity="0.037333333333333" stroke="#000" stroke-opacity="0.02" transform="translate(16.743157806499, 48.333333333333) rotate(0, 8.3715789032496, 9.6666666666667)" /><polyline points="0, 0, 16.743157806499, 9.6666666666667, 0, 19.333333333333, 0, 0" fill="#222" fill-opacity="0.15" stroke="#000" stroke-opacity="0.02" transform="translate(33.486315612998, -9.6666666666667) rotate(180, 8.3715789032496, 9.6666666666667)" /><polyline points="0, 0, 16.743157806499, 9.6666666666667, 0, 19.333333333333, 0, 0" fill="#222" fill-opacity="0.15" stroke="#000" stroke-opacity="0.02" transform="translate(33.486315612998, 48.333333333333) rotate(180, 8.3715789032496, 9.6666666666667)" /><polyline points="0, 0, 16.743157806499, 9.6666666666667, 0, 19.333333333333, 0, 0" fill="#222" fill-opacity="0.063333333333333" stroke="#000" stroke-opacity="0.02" transform="translate(50.229473419497, -9.6666666666667) rotate(0, 8.3715789032496, 9.6666666666667)" /><polyline points="0, 0, 16.743157806499, 9.6666666666667, 0, 19.333333333333, 0, 0" fill="#222" fill-opacity="0.063333333333333" stroke="#000" stroke-opacity="0.02" transform="translate(50.229473419497, 48.333333333333) rotate(0, 8.3715789032496, 9.6666666666667)" /><polyline points="0, 0, 16.743157806499, 9.6666666666667, 0, 19.333333333333, 0, 0" fill="#222" fill-opacity="0.046" stroke="#000" stroke-opacity="0.02" transform="translate(66.972631225997, -9.6666666666667) rotate(180, 8.3715789032496, 9.6666666666667)" /><polyline points="0, 0, 16.743157806499, 9.6666666666667, 0, 19.333333333333, 0, 0" fill="#222" fill-opacity="0.046" stroke="#000" stroke-opacity="0.02" transform="translate(66.972631225997, 48.333333333333) rotate(180, 8.3715789032496, 9.6666666666667)" /><polyline points="0, 0, 16.743157806499, 9.6666666666667, 0, 19.333333333333, 0, 0" fill="#ddd" fill-opacity="0.02" stroke="#000" stroke-opacity="0.02" transform="translate(83.715789032496, -9.6666666666667) rotate(0, 8.3715789032496, 9.6666666666667)" /><polyline points="0, 0, 16.743157806499, 9.6666666666667, 0, 19.333333333333, 0, 0" fill="#ddd" fill-opacity="0.02" stroke="#000" stroke-opacity="0.02" transform="translate(83.715789032496, 48.333333333333) rotate(0, 8.3715789032496, 9.6666666666667)" /><polyline points="0, 0, 16.743157806499, 9.6666666666667, 0, 19.333333333333, 0, 0" fill="#222" fill-opacity="0.028666666666667" stroke="#000" stroke-opacity="0.02" transform="translate(0, 0) rotate(0, 8.3715789032496, 9.6666666666667)" /><polyline points="0, 0, 16.743157806499, 9.6666666666667, 0, 19.333333333333, 0, 0" fill="#222" fill-opacity="0.063333333333333" stroke="#000" stroke-opacity="0.02" transform="translate(16.743157806499, 0) rotate(180, 8.3715789032496, 9.6666666666667)" /><polyline points="0, 0, 16.743157806499, 9.6666666666667, 0, 19.333333333333, 0, 0" fill="#222" fill-opacity="0.080666666666667" stroke="#000" stroke-opacity="0.02" transform="translate(33.486315612998, 0) rotate(0, 8.3715789032496, 9.6666666666667)" /><polyline points="0, 0, 16.743157806499, 9.6666666666667, 0, 19.333333333333, 0, 0" fill="#222" fill-opacity="0.098" stroke="#000" stroke-opacity="0.02" transform="translate(50.229473419497, 0) rotate(180, 8.3715789032496, 9.6666666666667)" /><polyline points="0, 0, 16.743157806499, 9.6666666666667, 0, 19.333333333333, 0, 0" fill="#ddd" fill-opacity="0.037333333333333" stroke="#000" stroke-opacity="0.02" transform="translate(66.972631225997, 0) rotate(0, 8.3715789032496, 9.6666666666667)" /><polyline points="0, 0, 16.743157806499, 9.6666666666667, 0, 19.333333333333, 0, 0" fill="#ddd" fill-opacity="0.072" stroke="#000" stroke-opacity="0.02" transform="translate(83.715789032496, 0) rotate(180, 8.3715789032496, 9.6666666666667)" /><polyline points="0, 0, 16.743157806499, 9.6666666666667, 0, 19.333333333333, 0, 0" fill="#222" fill-opacity="0.098" stroke="#000" stroke-opacity="0.02" transform="translate(0, 9.6666666666667) rotate(180, 8.3715789032496, 9.6666666666667)" /><polyline points="0, 0, 16.743157806499, 9.6666666666667, 0, 19.333333333333, 0, 0" fill="#222" fill-opacity="0.063333333333333" stroke="#000" stroke-opacity="0.02" transform="translate(16.743157806499, 9.6666666666667) rotate(0, 8.3715789032496, 9.6666666666667)" /><polyline points="0, 0, 16.743157806499, 9.6666666666667, 0, 19.333333333333, 0, 0" fill="#222" fill-opacity="0.063333333333333" stroke="#000" stroke-opacity="0.02" transform="translate(33.486315612998, 9.6666666666667) rotate(180, 8.3715789032496, 9.6666666666667)" /><polyline points="0, 0, 16.743157806499, 9.6666666666667, 0, 19.333333333333, 0, 0" fill="#222" fill-opacity="0.15" stroke="#000" stroke-opacity="0.02" transform="translate(50.229473419497, 9.6666666666667) rotate(0, 8.3715789032496, 9.6666666666667)" /><polyline points="0, 0, 16.743157806499, 9.6666666666667, 0, 19.333333333333, 0, 0" fill="#222" fill-opacity="0.046" stroke="#000" stroke-opacity="0.02" transform="translate(66.972631225997, 9.6666666666667) rotate(180, 8.3715789032496, 9.6666666666667)" /><polyline points="0, 0, 16.743157806499, 9.6666666666667, 0, 19.333333333333, 0, 0" fill="#ddd" fill-opacity="0.037333333333333" stroke="#000" stroke-opacity="0.02" transform="translate(83.715789032496, 9.6666666666667) rotate(0, 8.3715789032496, 9.6666666666667)" /><polyline points="0, 0, 16.743157806499, 9.6666666666667, 0, 19.333333333333, 0, 0" fill="#222" fill-opacity="0.028666666666667" stroke="#000" stroke-opacity="0.02" transform="translate(0, 19.333333333333) rotate(0, 8.3715789032496, 9.6666666666667)" /><polyline points="0, 0, 16.743157806499, 9.6666666666667, 0, 19.333333333333, 0, 0" fill="#222" fill-opacity="0.063333333333333" stroke="#000" stroke-opacity="0.02" transform="translate(16.743157806499, 19.333333333333) rotate(180, 8.3715789032496, 9.6666666666667)" /><polyline points="0, 0, 16.743157806499, 9.6666666666667, 0, 19.333333333333, 0, 0" fill="#222" fill-opacity="0.15" stroke="#000" stroke-opacity="0.02" transform="translate(33.486315612998, 19.333333333333) rotate(0, 8.3715789032496, 9.6666666666667)" /><polyline points="0, 0, 16.743157806499, 9.6666666666667, 0, 19.333333333333, 0, 0" fill="#222" fill-opacity="0.11533333333333" stroke="#000" stroke-opacity="0.02" transform="translate(50.229473419497, 19.333333333333) rotate(180, 8.3715789032496, 9.6666666666667)" /><polyline points="0, 0, 16.743157806499, 9.6666666666667, 0, 19.333333333333, 0, 0" fill="#222" fill-opacity="0.080666666666667" stroke="#000" stroke-opacity="0.02" transform="translate(66.972631225997, 19.333333333333) rotate(0, 8.3715789032496, 9.6666666666667)" /><polyline points="0, 0, 16.743157806499, 9.6666666666667, 0, 19.333333333333, 0, 0" fill="#222" fill-opacity="0.098" stroke="#000" stroke-opacity="0.02" transform="translate(83.715789032496, 19.333333333333) rotate(180, 8.3715789032496, 9.6666666666667)" /><polyline points="0, 0, 16.743157806499, 9.6666666666667, 0, 19.333333333333, 0, 0" fill="#222" fill-opacity="0.13266666666667" stroke="#000" stroke-opacity="0.02" transform="translate(0, 29) rotate(180, 8.3715789032496, 9.6666666666667)" /><polyline points="0, 0, 16.743157806499, 9.6666666666667, 0, 19.333333333333, 0, 0" fill="#ddd" fill-opacity="0.037333333333333" stroke="#000" stroke-opacity="0.02" transform="translate(16.743157806499, 29) rotate(0, 8.3715789032496, 9.6666666666667)" /><polyline points="0, 0, 16.743157806499, 9.6666666666667, 0, 19.333333333333, 0, 0" fill="#222" fill-opacity="0.11533333333333" stroke="#000" stroke-opacity="0.02" transform="translate(33.486315612998, 29) rotate(180, 8.3715789032496, 9.6666666666667)" /><polyline points="0, 0, 16.743157806499, 9.6666666666667, 0, 19.333333333333, 0, 0" fill="#ddd" fill-opacity="0.124" stroke="#000" stroke-opacity="0.02" transform="translate(50.229473419497, 29) rotate(0, 8.3715789032496, 9.6666666666667)" /><polyline points="0, 0, 16.743157806499, 9.6666666666667, 0, 19.333333333333, 0, 0" fill="#ddd" fill-opacity="0.10666666666667" stroke="#000" stroke-opacity="0.02" transform="translate(66.972631225997, 29) rotate(180, 8.3715789032496, 9.6666666666667)" /><polyline points="0, 0, 16.743157806499, 9.6666666666667, 0, 19.333333333333, 0, 0" fill="#ddd" fill-opacity="0.072" stroke="#000" stroke-opacity="0.02" transform="translate(83.715789032496, 29) rotate(0, 8.3715789032496, 9.6666666666667)" /><polyline points="0, 0, 16.743157806499, 9.6666666666667, 0, 19.333333333333, 0, 0" fill="#222" fill-opacity="0.11533333333333" stroke="#000" stroke-opacity="0.02" transform="translate(0, 38.666666666667) rotate(0, 8.3715789032496, 9.6666666666667)" /><polyline points="0, 0, 16.743157806499, 9.6666666666667, 0, 19.333333333333, 0, 0" fill="#222" fill-opacity="0.15" stroke="#000" stroke-opacity="0.02" transform="translate(16.743157806499, 38.666666666667) rotate(180, 8.3715789032496, 9.6666666666667)" /><polyline points="0, 0, 16.743157806499, 9.6666666666667, 0, 19.333333333333, 0, 0" fill="#222" fill-opacity="0.028666666666667" stroke="#000" stroke-opacity="0.02" transform="translate(33.486315612998, 38.666666666667) rotate(0, 8.3715789032496, 9.6666666666667)" /><polyline points="0, 0, 16.743157806499, 9.6666666666667, 0, 19.333333333333, 0, 0" fill="#222" fill-opacity="0.080666666666667" stroke="#000" stroke-opacity="0.02" transform="translate(50.229473419497, 38.666666666667) rotate(180, 8.3715789032496, 9.6666666666667)" /><polyline points="0, 0, 16.743157806499, 9.6666666666667, 0, 19.333333333333, 0, 0" fill="#ddd" fill-opacity="0.14133333333333" stroke="#000" stroke-opacity="0.02" transform="translate(66.972631225997, 38.666666666667) rotate(0, 8.3715789032496, 9.6666666666667)" /><polyline points="0, 0, 16.743157806499, 9.6666666666667, 0, 19.333333333333, 0, 0" fill="#ddd" fill-opacity="0.124" stroke="#000" stroke-opacity="0.02" transform="translate(83.715789032496, 38.666666666667) rotate(180, 8.3715789032496, 9.6666666666667)" /></svg>