<?xml version="1.0"?><svg xmlns="http://www.w3.org/2000/svg" width="268" height="30"><rect x="0" y="0" width="100%" height="100%" fill="rgb(162, 155, 254)" /><polyline points="22.333333333333, 0, 44.666666666667, 5, 22.333333333333, 10, 0, 5" fill="#222" fill-opacity="0.13266666666667" stroke="#000" stroke-opacity="0.02" transform="translate(-22.333333333333, -5)" /><polyline points="22.333333333333, 0, 44.666666666667, 5, 22.333333333333, 10, 0, 5" fill="#222" fill-opacity="0.13266666666667" stroke="#000" stroke-opacity="0.02" transform="translate(245.66666666667, -5)" /><polyline points="22.333333333333, 0, 44.666666666667, 5, 22.333333333333, 10, 0, 5" fill="#222" fill-opacity="0.13266666666667" stroke="#000" stroke-opacity="0.02" transform="translate(-22.333333333333, 25)" /><polyline points="22.333333333333, 0, 44.666666666667, 5, 22.333333333333, 10, 0, 5" fill="#222" fill-opacity="0.13266666666667" stroke="#000" stroke-opacity="0.02" transform="translate(245.66666666667, 25)" /><polyline points="22.333333333333, 0, 44.666666666667, 5, 22.333333333333, 10, 0, 5" fill="#ddd" fill-opacity="0.02" stroke="#000" stroke-opacity="0.02" transform="translate(22.333333333333, -5)" /><polyline points="22.333333333333, 0, 44.666666666667, 5, 22.333333333333, 10, 0, 5" fill="#ddd" fill-opacity="0.02" stroke="#000" stroke-opacity="0.02" transform="translate(22.333333333333, 25)" /><polyline points="22.333333333333, 0, 44.666666666667, 5, 22.333333333333, 10, 0, 5" fill="#ddd" fill-opacity="0.02" stroke="#000" stroke-opacity="0.02" transform="translate(67, -5)" /><polyline points="22.333333333333, 0, 44.666666666667, 5, 22.333333333333, 10, 0, 5" fill="#ddd" fill-opacity="0.02" stroke="#000" stroke-opacity="0.02" transform="translate(67, 25)" /><polyline points="22.333333333333, 0, 44.666666666667, 5, 22.333333333333, 10, 0, 5" fill="#ddd" fill-opacity="0.054666666666667" stroke="#000" stroke-opacity="0.02" transform="translate(111.66666666667, -5)" /><polyline points="22.333333333333, 0, 44.666666666667, 5, 22.333333333333, 10, 0, 5" fill="#ddd" fill-opacity="0.054666666666667" stroke="#000" stroke-opacity="0.02" transform="translate(111.66666666667, 25)" /><polyline points="22.333333333333, 0, 44.666666666667, 5, 22.333333333333, 10, 0, 5" fill="#222" fill-opacity="0.080666666666667" stroke="#000" stroke-opacity="0.02" transform="translate(156.33333333333, -5)" /><polyline points="22.333333333333, 0, 44.666666666667, 5, 22.333333333333, 10, 0, 5" fill="#222" fill-opacity="0.080666666666667" stroke="#000" stroke-opacity="0.02" transform="translate(156.33333333333, 25)" /><polyline points="22.333333333333, 0, 44.666666666667, 5, 22.333333333333, 10, 0, 5" fill="#222" fill-opacity="0.046" stroke="#000" stroke-opacity="0.02" transform="translate(201, -5)" /><polyline points="22.333333333333, 0, 44.666666666667, 5, 22.333333333333, 10, 0, 5" fill="#222" fill-opacity="0.046" stroke="#000" stroke-opacity="0.02" transform="translate(201, 25)" /><polyline points="22.333333333333, 0, 44.666666666667, 5, 22.333333333333, 10, 0, 5" fill="#ddd" fill-opacity="0.124" stroke="#000" stroke-opacity="0.02" transform="translate(0, 0)" /><polyline points="22.333333333333, 0, 44.666666666667, 5, 22.333333333333, 10, 0, 5" fill="#ddd" fill-opacity="0.124" stroke="#000" stroke-opacity="0.02" transform="translate(268, 0)" /><polyline points="22.333333333333, 0, 44.666666666667, 5, 22.333333333333, 10, 0, 5" fill="#ddd" fill-opacity="0.124" stroke="#000" stroke-opacity="0.02" transform="translate(44.666666666667, 0)" /><polyline points="22.333333333333, 0, 44.666666666667, 5, 22.333333333333, 10, 0, 5" fill="#ddd" fill-opacity="0.072" stroke="#000" stroke-opacity="0.02" transform="translate(89.333333333333, 0)" /><polyline points="22.333333333333, 0, 44.666666666667, 5, 22.333333333333, 10, 0, 5" fill="#ddd" fill-opacity="0.037333333333333" stroke="#000" stroke-opacity="0.02" transform="translate(134, 0)" /><polyline points="22.333333333333, 0, 44.666666666667, 5, 22.333333333333, 10, 0, 5" fill="#ddd" fill-opacity="0.089333333333333" stroke="#000" stroke-opacity="0.02" transform="translate(178.66666666667, 0)" /><polyline points="22.333333333333, 0, 44.666666666667, 5, 22.333333333333, 10, 0, 5" fill="#222" fill-opacity="0.098" stroke="#000" stroke-opacity="0.02" transform="translate(223.33333333333, 0)" /><polyline points="22.333333333333, 0, 44.666666666667, 5, 22.333333333333, 10, 0, 5" fill="#ddd" fill-opacity="0.089333333333333" stroke="#000" stroke-opacity="0.02" transform="translate(-22.333333333333, 5)" /><polyline points="22.333333333333, 0, 44.666666666667, 5, 22.333333333333, 10, 0, 5" fill="#ddd" fill-opacity="0.089333333333333" stroke="#000" stroke-opacity="0.02" transform="translate(245.66666666667, 5)" /><polyline points="22.333333333333, 0, 44.666666666667, 5, 22.333333333333, 10, 0, 5" fill="#ddd" fill-opacity="0.072" stroke="#000" stroke-opacity="0.02" transform="translate(22.333333333333, 5)" /><polyline points="22.333333333333, 0, 44.666666666667, 5, 22.333333333333, 10, 0, 5" fill="#222" fill-opacity="0.080666666666667" stroke="#000" stroke-opacity="0.02" transform="translate(67, 5)" /><polyline points="22.333333333333, 0, 44.666666666667, 5, 22.333333333333, 10, 0, 5" fill="#222" fill-opacity="0.080666666666667" stroke="#000" stroke-opacity="0.02" transform="translate(111.66666666667, 5)" /><polyline points="22.333333333333, 0, 44.666666666667, 5, 22.333333333333, 10, 0, 5" fill="#ddd" fill-opacity="0.14133333333333" stroke="#000" stroke-opacity="0.02" transform="translate(156.33333333333, 5)" /><polyline points="22.333333333333, 0, 44.666666666667, 5, 22.333333333333, 10, 0, 5" fill="#ddd" fill-opacity="0.124" stroke="#000" stroke-opacity="0.02" transform="translate(201, 5)" /><polyline points="22.333333333333, 0, 44.666666666667, 5, 22.333333333333, 10, 0, 5" fill="#ddd" fill-opacity="0.14133333333333" stroke="#000" stroke-opacity="0.02" transform="translate(0, 10)" /><polyline points="22.333333333333, 0, 44.666666666667, 5, 22.333333333333, 10, 0, 5" fill="#ddd" fill-opacity="0.14133333333333" stroke="#000" stroke-opacity="0.02" transform="translate(268, 10)" /><polyline points="22.333333333333, 0, 44.666666666667, 5, 22.333333333333, 10, 0, 5" fill="#222" fill-opacity="0.080666666666667" stroke="#000" stroke-opacity="0.02" transform="translate(44.666666666667, 10)" /><polyline points="22.333333333333, 0, 44.666666666667, 5, 22.333333333333, 10, 0, 5" fill="#222" fill-opacity="0.11533333333333" stroke="#000" stroke-opacity="0.02" transform="translate(89.333333333333, 10)" /><polyline points="22.333333333333, 0, 44.666666666667, 5, 22.333333333333, 10, 0, 5" fill="#222" fill-opacity="0.080666666666667" stroke="#000" stroke-opacity="0.02" transform="translate(134, 10)" /><polyline points="22.333333333333, 0, 44.666666666667, 5, 22.333333333333, 10, 0, 5" fill="#ddd" fill-opacity="0.089333333333333" stroke="#000" stroke-opacity="0.02" transform="translate(178.66666666667, 10)" /><polyline points="22.333333333333, 0, 44.666666666667, 5, 22.333333333333, 10, 0, 5" fill="#ddd" fill-opacity="0.02" stroke="#000" stroke-opacity="0.02" transform="translate(223.33333333333, 10)" /><polyline points="22.333333333333, 0, 44.666666666667, 5, 22.333333333333, 10, 0, 5" fill="#ddd" fill-opacity="0.037333333333333" stroke="#000" stroke-opacity="0.02" transform="translate(-22.333333333333, 15)" /><polyline points="22.333333333333, 0, 44.666666666667, 5, 22.333333333333, 10, 0, 5" fill="#ddd" fill-opacity="0.037333333333333" stroke="#000" stroke-opacity="0.02" transform="translate(245.66666666667, 15)" /><polyline points="22.333333333333, 0, 44.666666666667, 5, 22.333333333333, 10, 0, 5" fill="#222" fill-opacity="0.098" stroke="#000" stroke-opacity="0.02" transform="translate(22.333333333333, 15)" /><polyline points="22.333333333333, 0, 44.666666666667, 5, 22.333333333333, 10, 0, 5" fill="#222" fill-opacity="0.063333333333333" stroke="#000" stroke-opacity="0.02" transform="translate(67, 15)" /><polyline points="22.333333333333, 0, 44.666666666667, 5, 22.333333333333, 10, 0, 5" fill="#ddd" fill-opacity="0.089333333333333" stroke="#000" stroke-opacity="0.02" transform="translate(111.66666666667, 15)" /><polyline points="22.333333333333, 0, 44.666666666667, 5, 22.333333333333, 10, 0, 5" fill="#ddd" fill-opacity="0.072" stroke="#000" stroke-opacity="0.02" transform="translate(156.33333333333, 15)" /><polyline points="22.333333333333, 0, 44.666666666667, 5, 22.333333333333, 10, 0, 5" fill="#222" fill-opacity="0.15" stroke="#000" stroke-opacity="0.02" transform="translate(201, 15)" /><polyline points="22.333333333333, 0, 44.666666666667, 5, 22.333333333333, 10, 0, 5" fill="#222" fill-opacity="0.046" stroke="#000" stroke-opacity="0.02" transform="translate(0, 20)" /><polyline points="22.333333333333, 0, 44.666666666667, 5, 22.333333333333, 10, 0, 5" fill="#222" fill-opacity="0.046" stroke="#000" stroke-opacity="0.02" transform="translate(268, 20)" /><polyline points="22.333333333333, 0, 44.666666666667, 5, 22.333333333333, 10, 0, 5" fill="#222" fill-opacity="0.15" stroke="#000" stroke-opacity="0.02" transform="translate(44.666666666667, 20)" /><polyline points="22.333333333333, 0, 44.666666666667, 5, 22.333333333333, 10, 0, 5" fill="#222" fill-opacity="0.028666666666667" stroke="#000" stroke-opacity="0.02" transform="translate(89.333333333333, 20)" /><polyline points="22.333333333333, 0, 44.666666666667, 5, 22.333333333333, 10, 0, 5" fill="#ddd" fill-opacity="0.054666666666667" stroke="#000" stroke-opacity="0.02" transform="translate(134, 20)" /><polyline points="22.333333333333, 0, 44.666666666667, 5, 22.333333333333, 10, 0, 5" fill="#ddd" fill-opacity="0.089333333333333" stroke="#000" stroke-opacity="0.02" transform="translate(178.66666666667, 20)" /><polyline points="22.333333333333, 0, 44.666666666667, 5, 22.333333333333, 10, 0, 5" fill="#ddd" fill-opacity="0.072" stroke="#000" stroke-opacity="0.02" transform="translate(223.33333333333, 20)" /></svg>