<?xml version="1.0"?><svg xmlns="http://www.w3.org/2000/svg" width="320" height="320"><rect x="0" y="0" width="100%" height="100%" fill="rgb(178, 190, 195)" /><circle cx="0" cy="0" r="53.333333333333" fill="#222" style="opacity:0.080666666666667;" /><circle cx="320" cy="0" r="53.333333333333" fill="#222" style="opacity:0.080666666666667;" /><circle cx="0" cy="320" r="53.333333333333" fill="#222" style="opacity:0.080666666666667;" /><circle cx="320" cy="320" r="53.333333333333" fill="#222" style="opacity:0.080666666666667;" /><circle cx="53.333333333333" cy="0" r="53.333333333333" fill="#ddd" style="opacity:0.14133333333333;" /><circle cx="53.333333333333" cy="320" r="53.333333333333" fill="#ddd" style="opacity:0.14133333333333;" /><circle cx="106.66666666667" cy="0" r="53.333333333333" fill="#222" style="opacity:0.063333333333333;" /><circle cx="106.66666666667" cy="320" r="53.333333333333" fill="#222" style="opacity:0.063333333333333;" /><circle cx="160" cy="0" r="53.333333333333" fill="#ddd" style="opacity:0.14133333333333;" /><circle cx="160" cy="320" r="53.333333333333" fill="#ddd" style="opacity:0.14133333333333;" /><circle cx="213.33333333333" cy="0" r="53.333333333333" fill="#ddd" style="opacity:0.072;" /><circle cx="213.33333333333" cy="320" r="53.333333333333" fill="#ddd" style="opacity:0.072;" /><circle cx="266.66666666667" cy="0" r="53.333333333333" fill="#ddd" style="opacity:0.072;" /><circle cx="266.66666666667" cy="320" r="53.333333333333" fill="#ddd" style="opacity:0.072;" /><circle cx="0" cy="53.333333333333" r="53.333333333333" fill="#222" style="opacity:0.046;" /><circle cx="320" cy="53.333333333333" r="53.333333333333" fill="#222" style="opacity:0.046;" /><circle cx="53.333333333333" cy="53.333333333333" r="53.333333333333" fill="#222" style="opacity:0.063333333333333;" /><circle cx="106.66666666667" cy="53.333333333333" r="53.333333333333" fill="#222" style="opacity:0.063333333333333;" /><circle cx="160" cy="53.333333333333" r="53.333333333333" fill="#222" style="opacity:0.15;" /><circle cx="213.33333333333" cy="53.333333333333" r="53.333333333333" fill="#ddd" style="opacity:0.072;" /><circle cx="266.66666666667" cy="53.333333333333" r="53.333333333333" fill="#222" style="opacity:0.063333333333333;" /><circle cx="0" cy="106.66666666667" r="53.333333333333" fill="#222" style="opacity:0.15;" /><circle cx="320" cy="106.66666666667" r="53.333333333333" fill="#222" style="opacity:0.15;" /><circle cx="53.333333333333" cy="106.66666666667" r="53.333333333333" fill="#222" style="opacity:0.046;" /><circle cx="106.66666666667" cy="106.66666666667" r="53.333333333333" fill="#ddd" style="opacity:0.02;" /><circle cx="160" cy="106.66666666667" r="53.333333333333" fill="#222" style="opacity:0.046;" /><circle cx="213.33333333333" cy="106.66666666667" r="53.333333333333" fill="#ddd" style="opacity:0.037333333333333;" /><circle cx="266.66666666667" cy="106.66666666667" r="53.333333333333" fill="#ddd" style="opacity:0.054666666666667;" /><circle cx="0" cy="160" r="53.333333333333" fill="#ddd" style="opacity:0.02;" /><circle cx="320" cy="160" r="53.333333333333" fill="#ddd" style="opacity:0.02;" /><circle cx="53.333333333333" cy="160" r="53.333333333333" fill="#ddd" style="opacity:0.037333333333333;" /><circle cx="106.66666666667" cy="160" r="53.333333333333" fill="#222" style="opacity:0.028666666666667;" /><circle cx="160" cy="160" r="53.333333333333" fill="#ddd" style="opacity:0.124;" /><circle cx="213.33333333333" cy="160" r="53.333333333333" fill="#ddd" style="opacity:0.124;" /><circle cx="266.66666666667" cy="160" r="53.333333333333" fill="#222" style="opacity:0.063333333333333;" /><circle cx="0" cy="213.33333333333" r="53.333333333333" fill="#ddd" style="opacity:0.124;" /><circle cx="320" cy="213.33333333333" r="53.333333333333" fill="#ddd" style="opacity:0.124;" /><circle cx="53.333333333333" cy="213.33333333333" r="53.333333333333" fill="#ddd" style="opacity:0.02;" /><circle cx="106.66666666667" cy="213.33333333333" r="53.333333333333" fill="#222" style="opacity:0.13266666666667;" /><circle cx="160" cy="213.33333333333" r="53.333333333333" fill="#ddd" style="opacity:0.124;" /><circle cx="213.33333333333" cy="213.33333333333" r="53.333333333333" fill="#222" style="opacity:0.046;" /><circle cx="266.66666666667" cy="213.33333333333" r="53.333333333333" fill="#ddd" style="opacity:0.089333333333333;" /><circle cx="0" cy="266.66666666667" r="53.333333333333" fill="#222" style="opacity:0.11533333333333;" /><circle cx="320" cy="266.66666666667" r="53.333333333333" fill="#222" style="opacity:0.11533333333333;" /><circle cx="53.333333333333" cy="266.66666666667" r="53.333333333333" fill="#ddd" style="opacity:0.054666666666667;" /><circle cx="106.66666666667" cy="266.66666666667" r="53.333333333333" fill="#222" style="opacity:0.11533333333333;" /><circle cx="160" cy="266.66666666667" r="53.333333333333" fill="#222" style="opacity:0.063333333333333;" /><circle cx="213.33333333333" cy="266.66666666667" r="53.333333333333" fill="#222" style="opacity:0.15;" /><circle cx="266.66666666667" cy="266.66666666667" r="53.333333333333" fill="#ddd" style="opacity:0.124;" /></svg>